<?xml version="1.0" standalone="no"?>
<!DOCTYPE svg PUBLIC "-//W3C//DTD SVG 20010904//EN"
 "http://www.w3.org/TR/2001/REC-SVG-20010904/DTD/svg10.dtd">
<svg version="1.0" xmlns="http://www.w3.org/2000/svg"
 width="91.000000pt" height="91.000000pt" viewBox="0 0 3826.000000 2481.000000"
 preserveAspectRatio="xMidYMid meet">

<g transform="translate(0.000000,2481.000000) scale(0.100000,-0.100000)"
fill="#000000" stroke="none">
<path d="M27600 20783 c-494 -49 -909 -298 -1174 -706 -103 -158 -184 -357
-221 -547 -23 -117 -31 -345 -15 -467 26 -212 97 -425 199 -599 29 -48 50 -90
49 -94 -4 -10 -3071 -2670 -3078 -2670 -3 1 -27 32 -54 71 -229 323 -597 552
-1001 621 -156 27 -429 21 -570 -11 -315 -73 -576 -217 -790 -437 l-60 -61
-1425 1243 -1425 1243 3 88 c9 237 -55 519 -171 749 -105 209 -316 446 -512
577 -627 415 -1443 331 -1965 -203 -195 -198 -320 -418 -390 -685 -43 -163
-54 -265 -46 -455 3 -91 8 -179 12 -195 5 -30 -31 -62 -1708 -1506 -942 -812
-1726 -1488 -1743 -1501 l-30 -25 -96 58 c-368 222 -815 282 -1224 164 -387
-112 -705 -358 -909 -705 -213 -360 -268 -801 -151 -1211 108 -377 372 -712
720 -913 349 -201 799 -254 1190 -141 258 75 483 209 675 404 165 168 290 371
364 595 125 372 95 819 -76 1159 -21 44 -36 83 -31 87 4 4 744 641 1643 1415
899 774 1643 1415 1653 1423 17 15 21 13 59 -33 172 -208 433 -388 685 -474
573 -195 1198 -46 1614 385 57 60 165 194 195 242 5 8 2759 -2402 2757 -2412
0 -6 -11 -64 -22 -129 -24 -134 -28 -334 -10 -464 24 -179 77 -345 164 -511
76 -146 153 -250 280 -377 219 -220 491 -365 796 -424 499 -96 1011 59 1372
416 189 186 315 392 392 638 49 155 67 267 71 444 2 85 5 155 6 156 2 1 750
650 1663 1441 913 792 1665 1443 1672 1447 7 4 58 -14 115 -42 213 -101 375
-140 618 -148 194 -6 323 8 479 53 803 233 1279 1063 1071 1869 -145 563 -587
992 -1155 1123 -151 35 -331 49 -465 35z m313 -699 c305 -62 564 -313 648
-629 26 -96 31 -296 10 -390 -58 -266 -237 -490 -482 -604 -135 -63 -193 -75
-364 -76 -171 0 -249 17 -378 81 -189 95 -320 229 -407 417 -49 107 -69 189
-77 312 -13 237 68 461 231 632 220 233 503 321 819 257z m-11242 -738 c266
-57 502 -250 614 -502 90 -201 91 -464 5 -675 -99 -238 -311 -427 -562 -500
-91 -26 -287 -36 -381 -20 -168 29 -316 104 -444 225 -179 168 -273 385 -273
625 0 398 271 746 657 840 96 24 288 27 384 7z m5599 -3641 c90 -23 232 -94
314 -156 176 -134 300 -358 326 -593 48 -423 -237 -826 -655 -927 -122 -29
-296 -29 -410 0 -170 45 -355 160 -455 285 -89 112 -139 209 -178 351 -26 94
-23 327 6 428 89 312 342 551 657 621 90 20 302 15 395 -9z m-11502 -911 c396
-81 682 -435 682 -844 0 -295 -142 -559 -387 -720 -159 -105 -310 -145 -512
-137 -147 5 -212 21 -336 81 -221 106 -381 295 -457 536 -20 66 -23 95 -23
240 0 145 3 174 23 240 97 310 341 537 652 606 81 18 267 17 358 -2z"/>
<path d="M5460 10980 l0 -300 63 0 c34 -1 106 -5 159 -9 113 -10 154 -29 180
-81 17 -33 18 -142 18 -1850 l0 -1816 -22 -44 c-35 -67 -84 -87 -260 -105 -79
-8 -146 -15 -150 -15 -5 0 -8 -121 -8 -270 l0 -270 850 0 850 0 -2 283 -3 282
-85 7 c-47 4 -138 10 -202 14 l-118 6 0 876 c0 497 4 905 10 942 24 165 84
283 205 405 90 91 196 151 320 181 97 24 316 24 404 1 218 -59 326 -222 361
-549 6 -59 10 -414 10 -910 -1 -859 -1 -859 -47 -910 -31 -36 -96 -57 -204
-68 -57 -6 -123 -13 -146 -16 l-43 -5 0 -270 0 -269 845 0 845 0 0 284 0 284
-92 6 c-51 3 -141 8 -200 12 l-108 6 0 962 c0 1009 -4 1113 -45 1296 -50 226
-126 379 -253 512 -156 163 -363 264 -614 298 -122 17 -348 14 -464 -5 -299
-51 -561 -205 -737 -433 l-42 -55 -5 944 -5 944 -632 3 -633 2 0 -300z"/>
<path d="M22735 11267 c-3 -7 -4 -134 -3 -282 l3 -270 95 -7 c301 -24 337 -34
372 -98 17 -32 18 -65 18 -416 l0 -382 -92 23 c-159 40 -299 56 -488 56 -252
0 -424 -28 -637 -102 -573 -200 -974 -775 -1068 -1529 -58 -466 -8 -952 135
-1311 185 -464 455 -699 907 -790 153 -31 452 -38 592 -15 298 50 525 191 697
432 25 35 50 64 55 64 5 0 9 -90 9 -210 l0 -210 575 0 575 0 0 285 0 285 -27
0 c-16 1 -87 5 -159 9 -142 9 -178 21 -210 68 -18 27 -19 88 -24 2218 l-5
2190 -658 3 c-525 2 -659 0 -662 -11z m176 -2013 c97 -17 233 -55 282 -80 l27
-15 0 -957 c0 -624 -4 -973 -11 -1002 -29 -126 -144 -273 -271 -348 -171 -101
-436 -126 -631 -61 -266 89 -428 336 -494 754 -25 159 -25 614 0 773 25 159
59 287 111 413 123 303 299 466 566 523 90 20 305 20 421 0z"/>
<path d="M35520 10470 l0 -70 200 0 200 0 0 -530 0 -530 80 0 80 0 0 530 0
530 200 0 200 0 0 70 0 70 -480 0 -480 0 0 -70z"/>
<path d="M36640 9940 l0 -600 80 0 80 0 1 493 1 492 165 -492 165 -493 73 0
73 0 165 493 165 492 1 -492 1 -493 80 0 80 0 0 600 0 601 -122 -3 -121 -3
-161 -494 c-88 -271 -163 -487 -165 -480 -3 8 -75 230 -161 494 l-156 480
-122 3 -122 3 0 -601z"/>
<path d="M3500 9889 c-561 -34 -1003 -304 -1160 -710 -98 -253 -97 -630 2
-868 67 -161 169 -277 325 -372 188 -114 380 -191 656 -265 454 -120 509 -142
616 -242 40 -38 70 -77 88 -117 25 -53 28 -71 27 -160 0 -122 -23 -190 -90
-264 -55 -61 -156 -114 -264 -138 -100 -22 -392 -22 -500 0 -162 33 -260 89
-301 174 -22 45 -24 62 -27 251 l-3 202 -27 0 c-15 0 -159 -10 -319 -22 l-293
-22 0 -497 0 -497 107 -43 c207 -80 475 -135 794 -160 195 -15 645 -6 754 15
336 65 614 215 793 427 76 90 163 260 192 377 77 307 32 635 -117 859 -157
237 -394 372 -905 519 -313 89 -401 120 -530 186 -116 59 -184 126 -219 216
-17 45 -22 79 -23 167 -1 102 1 114 27 164 88 166 287 251 562 238 273 -13
421 -68 477 -176 28 -53 28 -55 28 -237 l0 -184 23 0 c36 -1 580 41 605 46
l22 4 -2 426 -3 425 -100 45 c-132 60 -392 147 -535 178 -222 49 -461 68 -680
55z"/>
<path d="M11570 9889 c-399 -19 -759 -134 -1012 -324 -113 -85 -269 -250 -346
-365 -218 -326 -330 -725 -348 -1240 -23 -626 130 -1153 425 -1463 169 -178
359 -279 634 -339 90 -20 131 -22 337 -22 222 0 240 1 332 26 248 68 445 198
610 405 27 35 54 63 59 63 5 0 9 -88 9 -205 l0 -205 565 0 565 0 0 284 0 284
-92 6 c-215 15 -247 24 -285 83 -17 26 -18 96 -21 1399 l-2 1372 -168 55
c-454 150 -835 206 -1262 186z m339 -635 c58 -8 141 -27 184 -41 l77 -26 -2
-981 -3 -981 -23 -60 c-53 -141 -184 -284 -325 -354 -114 -56 -196 -74 -347
-74 -213 -1 -333 44 -466 177 -69 69 -89 97 -132 186 -58 118 -93 239 -119
410 -21 140 -24 572 -5 720 48 371 153 648 311 823 83 92 228 171 371 202 91
19 347 19 479 -1z"/>
<path d="M16020 9889 c-157 -12 -272 -44 -413 -117 -179 -91 -329 -230 -439
-404 l-58 -91 0 256 0 257 -600 0 -600 0 0 -289 0 -289 53 -5 c28 -4 97 -9
152 -12 145 -9 189 -20 224 -61 19 -21 32 -49 36 -76 3 -24 5 -518 3 -1098 -3
-1033 -3 -1056 -23 -1088 -34 -56 -102 -81 -262 -98 -76 -7 -141 -14 -145 -14
-5 0 -8 -121 -8 -270 l0 -270 955 0 955 0 0 279 0 279 -62 6 c-35 3 -126 8
-203 11 -77 3 -189 8 -248 11 l-108 7 3 901 4 901 22 75 c38 123 88 206 177
295 130 131 245 178 435 178 146 1 206 -21 238 -83 21 -42 22 -57 22 -247 0
-156 3 -203 13 -203 25 0 573 41 615 46 l42 5 0 524 0 525 -22 14 c-84 55
-357 131 -503 141 -44 3 -98 7 -120 9 -22 1 -83 -1 -135 -5z"/>
<path d="M18965 9889 c-437 -26 -792 -181 -1062 -462 -384 -400 -571 -949
-550 -1607 27 -799 346 -1353 902 -1565 232 -88 392 -116 702 -122 402 -9 637
35 962 181 171 76 350 184 351 212 0 9 -255 563 -264 571 -2 2 -37 -19 -78
-46 -166 -110 -375 -199 -558 -238 -116 -25 -392 -25 -502 -1 -176 39 -296
104 -402 219 -119 128 -195 311 -220 530 l-7 56 163 7 c484 21 890 106 1194
251 188 89 310 181 417 316 178 222 256 465 244 763 -7 177 -31 278 -98 414
-113 229 -343 401 -634 477 -156 40 -360 56 -560 44z m260 -623 c149 -45 232
-162 250 -353 22 -221 -106 -396 -394 -538 -176 -88 -372 -126 -769 -151
l-102 -6 6 58 c29 285 101 502 229 694 110 166 286 279 480 310 79 12 237 5
300 -14z"/>
<path d="M27109 9889 c-181 -12 -350 -55 -496 -125 -165 -79 -356 -231 -449
-357 l-44 -59 -2 219 -3 218 -600 0 -600 0 -3 -287 c-2 -227 0 -288 10 -288 7
0 92 -7 188 -14 194 -15 228 -25 257 -79 17 -30 18 -131 18 -1852 0 -1708 -1
-1822 -17 -1852 -37 -66 -117 -97 -288 -108 -52 -4 -103 -9 -112 -11 -17 -5
-18 -27 -18 -275 l0 -269 915 0 915 0 0 283 0 284 -162 7 c-90 3 -218 9 -285
13 l-123 6 0 484 c0 267 3 483 8 481 4 -2 50 -25 102 -51 106 -53 240 -97 375
-124 126 -24 422 -24 560 1 310 56 561 189 772 410 347 362 510 916 490 1661
-15 544 -113 935 -307 1220 -232 340 -608 498 -1101 464z m-26 -704 c80 -17
189 -72 252 -127 144 -127 241 -359 281 -677 20 -152 22 -516 5 -646 -59 -449
-225 -762 -466 -881 -107 -53 -194 -67 -360 -60 -205 8 -338 41 -495 120 l-85
43 -3 849 c-1 567 1 866 8 900 46 220 268 422 525 479 80 18 254 18 338 0z"/>
<path d="M31200 9889 c-157 -12 -272 -44 -413 -117 -179 -91 -329 -230 -439
-404 l-58 -91 0 256 0 257 -600 0 -600 0 0 -289 0 -289 53 -5 c28 -4 97 -9
152 -12 145 -9 189 -20 224 -61 19 -21 32 -49 36 -76 3 -24 5 -518 3 -1098 -3
-1033 -3 -1056 -23 -1088 -34 -56 -102 -81 -262 -98 -76 -7 -141 -14 -145 -14
-5 0 -8 -121 -8 -270 l0 -270 955 0 955 0 0 279 0 279 -62 6 c-35 3 -126 8
-203 11 -77 3 -189 8 -248 11 l-108 7 3 901 4 901 22 75 c38 123 88 206 177
295 130 131 245 178 435 178 146 1 206 -21 238 -83 21 -42 22 -57 22 -247 0
-156 3 -203 13 -203 25 0 573 41 615 46 l42 5 0 524 0 525 -22 14 c-84 55
-357 131 -503 141 -44 3 -98 7 -120 9 -22 1 -83 -1 -135 -5z"/>
<path d="M33920 9889 c-495 -32 -1003 -302 -1239 -659 -198 -300 -300 -664
-318 -1130 -19 -534 95 -1042 305 -1360 260 -391 662 -603 1192 -627 688 -31
1274 301 1555 882 146 301 203 577 212 1022 8 388 -22 627 -109 888 -128 384
-287 590 -596 772 -283 166 -614 236 -1002 212z m290 -645 c292 -75 452 -315
527 -794 15 -94 18 -177 18 -460 0 -317 -2 -356 -24 -475 -74 -417 -235 -653
-506 -742 -71 -23 -97 -26 -225 -27 -229 -1 -349 42 -480 174 -176 176 -265
476 -290 980 -21 432 23 728 145 976 137 279 360 405 685 387 52 -3 119 -12
150 -19z"/>
</g>
</svg>
